<?xml version="1.0" encoding="iso-8859-1"?>
<!-- Generator: Adobe Illustrator 16.0.0, SVG Export Plug-In . SVG Version: 6.00 Build 0)  -->
<!DOCTYPE svg PUBLIC "-//W3C//DTD SVG 1.1//EN" "http://www.w3.org/Graphics/SVG/1.1/DTD/svg11.dtd">
<svg version="1.1" id="Capa_1" xmlns="http://www.w3.org/2000/svg" xmlns:xlink="http://www.w3.org/1999/xlink" x="0px" y="0px"
	 width="31.867px" height="31.867px" viewBox="0 0 31.867 31.867" style="enable-background:new 0 0 31.867 31.867;"
	 xml:space="preserve">
<g>
	<g>
		<path d="M8.046,22.46c1.878,2.264,4.715,3.709,7.887,3.709s6.008-1.445,7.885-3.709c-2.324,0.498-5.019,0.781-7.885,0.781
			C13.063,23.241,10.372,22.958,8.046,22.46z" stroke="white" fill="white"/>
		<path d="M26.26,11.575c0.176,0.413,0.328,0.837,0.453,1.273c1.077,0.419,1.706,0.904,1.706,1.424c0,0.604-0.833,1.161-2.252,1.619
			C26.145,10.258,21.57,5.698,15.933,5.698c-5.639,0-10.212,4.56-10.234,10.194c-1.42-0.459-2.253-1.017-2.253-1.62
			c0-0.519,0.63-1.006,1.706-1.424c0.126-0.436,0.279-0.86,0.454-1.274C2.178,12.625,0,14.188,0,15.934
			c0,0.227,0.036,0.45,0.107,0.669c0.921,2.85,7.656,5.06,15.826,5.06c8.168,0,14.905-2.21,15.828-5.06
			c0.069-0.221,0.106-0.442,0.106-0.669C31.865,14.188,29.688,12.626,26.26,11.575z" stroke="white" fill="white"/>
	</g>
</g>
<g>
</g>
<g>
</g>
<g>
</g>
<g>
</g>
<g>
</g>
<g>
</g>
<g>
</g>
<g>
</g>
<g>
</g>
<g>
</g>
<g>
</g>
<g>
</g>
<g>
</g>
<g>
</g>
<g>
</g>
</svg>
