<?xml version="1.0" encoding="iso-8859-1"?>
<!-- Generator: Adobe Illustrator 18.1.1, SVG Export Plug-In . SVG Version: 6.00 Build 0)  -->
<svg version="1.1" id="Capa_1" xmlns="http://www.w3.org/2000/svg" xmlns:xlink="http://www.w3.org/1999/xlink" x="0px" y="0px"
	 viewBox="0 0 21.977 21.977" style="enable-background:new 0 0 21.977 21.977;" xml:space="preserve">
<g>
	<g>
		<polygon style="fill:#030104;" points="10.477,8.988 11.69,5.75 13.977,4.988 11.691,4.226 10.477,0.988 9.263,4.226 6.977,4.988 
			9.263,5.75 		" stroke="white" fill="white"/>
		<path style="fill:#030104;" d="M6,11.488c0-0.906,0.269-1.75,0.729-2.456C6.49,9.003,6.247,8.988,6,8.988
			c-0.549,0-1.08,0.073-1.585,0.212C1.87,9.895,0,12.222,0,14.988c0,3.312,2.687,6,6,6c3.057,0,5.579-2.285,5.953-5.239
			c-0.456,0.155-0.944,0.239-1.453,0.239C8.016,15.988,6,13.972,6,11.488z" stroke="white" fill="white"/>
		<polygon style="fill:#030104;" points="14.477,8.988 13.263,12.226 10.977,12.988 13.263,13.75 14.477,16.988 15.691,13.75 
			17.977,12.988 15.691,12.226 		" stroke="white" fill="white"/>
		<polygon style="fill:#030104;" points="20.344,6.417 19.477,3.988 18.61,6.417 16.977,6.988 18.61,7.559 19.477,9.988 
			20.344,7.559 21.977,6.988 		" stroke="white" fill="white"/>
	</g>
</g>
<g>
</g>
<g>
</g>
<g>
</g>
<g>
</g>
<g>
</g>
<g>
</g>
<g>
</g>
<g>
</g>
<g>
</g>
<g>
</g>
<g>
</g>
<g>
</g>
<g>
</g>
<g>
</g>
<g>
</g>
</svg>
