<?xml version="1.0" encoding="iso-8859-1"?>
<!-- Generator: Adobe Illustrator 16.0.0, SVG Export Plug-In . SVG Version: 6.00 Build 0)  -->
<!DOCTYPE svg PUBLIC "-//W3C//DTD SVG 1.1//EN" "http://www.w3.org/Graphics/SVG/1.1/DTD/svg11.dtd">
<svg version="1.1" id="Capa_1" xmlns="http://www.w3.org/2000/svg" xmlns:xlink="http://www.w3.org/1999/xlink" x="0px" y="0px"
	 width="23.9px" height="23.9px" viewBox="0 0 23.9 23.9" style="enable-background:new 0 0 23.9 23.9;" xml:space="preserve">
<g>
	<path d="M12,14.95c1.7,0,3-1.3,3-3s-1.3-3-3-3s-3,1.3-3,3S10.3,14.95,12,14.95z M10,11.95c0-0.098,0.016-0.189,0.029-0.282
		c0.057,0.048,0.114,0.082,0.171,0.082c0.1-0.1,0.1-0.3,0.3-0.3c0.4-0.1,0.3,0.3,0.101,0.5c-0.2,0.1-0.301,0.2-0.2,0.5
		c0.1,0.4,0.399,0.7,0.6,1.1c0.026,0.053,0.046,0.104,0.063,0.155C10.435,13.367,10,12.71,10,11.95z M13.146,10.319
		c-0.098,0.236-0.196,0.532-0.246,0.631c0,0.2-0.103,0.4-0.103,0.6c0,0.5,0.5,0,0.7,0.101c0.102,0.1,0.102,0.398,0.102,0.5
		c0,0.3-0.102,0.6-0.199,0.898c-0.043,0.127-0.039,0.242-0.004,0.324c-0.36,0.355-0.854,0.576-1.396,0.576
		c-0.092,0-0.18-0.016-0.269-0.027c-0.029-0.158-0.031-0.315-0.031-0.473c0-0.4,0.2-0.6,0.399-0.9c0.101-0.1,0.101-0.3,0.101-0.5
		c0-0.1,0-0.199,0.2-0.398c-0.102-0.2-0.102-0.3-0.2-0.3c-0.3,0-0.8,0.2-1,0c-0.1-0.1-0.1-0.3,0-0.4c0.1-0.2,0.3-0.1,0.4,0.1
		c0.199,0.1,0.1-0.5,0.1-0.6c0.1-0.1,0.2-0.2,0.2-0.3c0.01-0.072,0.007-0.132,0.001-0.19C11.935,9.958,11.966,9.95,12,9.95
		C12.427,9.95,12.82,10.088,13.146,10.319z M23,13.95c0,0.553-0.445,1-1,1c-0.553,0-1-0.447-1-1s0.447-1,1-1S23,13.397,23,13.95z
		 M19.82,7.461C20.18,4.706,19.589,2.481,18,1.55c-1.577-0.87-3.773-0.283-5.982,1.343C10.551,1.812,9.087,1.194,7.8,1.15
		C7.9,1.35,8,1.65,8,1.95c1.073-0.083,2.335,0.37,3.628,1.239c-1.006,0.796-2.005,1.804-2.942,2.989
		C7.383,6.362,6.172,6.651,5.094,7.032C5.012,5.801,5.143,4.707,5.5,3.85c-0.4-0.1-0.7-0.3-1-0.5
		C4.091,4.412,3.983,5.819,4.156,7.399C1.611,8.502,0,10.134,0,11.95c0,1.805,1.621,3.425,4.161,4.525
		c-0.23,2.098,0.075,3.871,0.939,4.975c0.1-0.3,0.2-0.6,0.4-0.8c-0.734-0.908-1.038-2.321-0.93-4.003
		c1.205,0.479,2.593,0.842,4.104,1.062c0.809,1.022,1.661,1.912,2.525,2.65c-0.814,0.557-1.627,0.974-2.4,1.19
		c0,0.101,0,0.301,0,0.398c0,0.2,0,0.398-0.1,0.602c1.015-0.265,2.1-0.822,3.186-1.639c2.252,1.7,4.506,2.324,6.114,1.438
		c1.591-0.879,2.185-3.112,1.854-5.892c0.479-0.218,0.938-0.45,1.347-0.71c-0.3-0.1-0.601-0.3-0.8-0.6
		c-0.217,0.13-0.451,0.252-0.69,0.369c-0.218-1.176-0.588-2.424-1.104-3.696c0.582-1.391,0.971-2.748,1.168-4.005
		C21.77,8.794,23,10.146,23,11.65c0,0.2,0,0.3-0.1,0.5c0.397,0.2,0.699,0.5,0.8,0.899c0.1-0.399,0.2-0.701,0.2-1.102
		C23.9,10.166,22.314,8.562,19.82,7.461z M17.2,2.35c1.312,0.756,1.856,2.507,1.681,4.735c-1.062-0.383-2.249-0.684-3.527-0.877
		C14.407,5,13.398,3.978,12.38,3.175C14.202,1.971,15.96,1.606,17.2,2.35z M11.997,3.446c0.948,0.692,1.905,1.6,2.812,2.691
		C13.875,6.019,12.904,5.95,11.9,5.95c-0.933,0-1.834,0.059-2.703,0.161C10.098,5.027,11.051,4.128,11.997,3.446z M15.07,6.465
		c0.646,0.812,1.265,1.708,1.83,2.686c0.379,0.671,0.718,1.344,1.014,2.01c-0.414,1.109-0.948,2.25-1.614,3.389
		c-0.477,0.842-0.999,1.615-1.544,2.334c-0.88,0.105-1.8,0.166-2.756,0.166c-0.952,0-1.87-0.062-2.75-0.175
		c-0.545-0.717-1.068-1.489-1.55-2.325c-0.688-1.131-1.229-2.266-1.646-3.372C6.359,10.503,6.704,9.825,7.1,9.15
		c0.553-0.977,1.161-1.875,1.8-2.682C9.883,6.328,10.921,6.25,12,6.25C13.068,6.25,14.096,6.327,15.07,6.465z M8.402,6.548
		C7.839,7.291,7.298,8.089,6.8,8.95c-0.337,0.581-0.64,1.164-0.914,1.746C5.49,9.549,5.232,8.445,5.128,7.428
		C6.097,7.048,7.202,6.75,8.402,6.548z M1,11.65c0-1.5,1.226-2.85,3.213-3.825c0.183,1.297,0.55,2.693,1.125,4.133
		C4.85,13.187,4.503,14.386,4.3,15.515C2.263,14.536,1,13.171,1,11.65z M4.676,15.681c0.151-1.025,0.439-2.125,0.862-3.258
		c0.359,0.84,0.765,1.687,1.262,2.527c0.349,0.602,0.718,1.168,1.1,1.712C6.704,16.429,5.618,16.095,4.676,15.681z M10.049,17.863
		c0.637,0.053,1.285,0.087,1.951,0.087c0.667,0,1.314-0.035,1.952-0.086c-0.636,0.729-1.293,1.369-1.96,1.908
		C11.334,19.231,10.681,18.593,10.049,17.863z M17.8,21.351c-1.356,0.783-3.235,0.303-5.146-1.069
		c0.83-0.713,1.652-1.554,2.434-2.534c1.598-0.209,3.064-0.574,4.325-1.088C19.577,18.867,19.053,20.599,17.8,21.351z
		 M19.298,15.708c-1.001,0.442-2.165,0.786-3.452,1.016c0.398-0.563,0.788-1.147,1.154-1.773c0.538-0.876,0.993-1.758,1.385-2.632
		C18.828,13.501,19.135,14.646,19.298,15.708z M18.096,10.669c-0.272-0.574-0.566-1.148-0.896-1.719
		c-0.493-0.859-1.024-1.66-1.579-2.398c1.18,0.2,2.268,0.493,3.223,0.866C18.734,8.428,18.488,9.524,18.096,10.669z M8,21.95
		c0,0.553-0.448,1-1,1s-1-0.447-1-1s0.448-1,1-1S8,21.397,8,21.95z M5,1.95c0-0.552,0.448-1,1-1s1,0.448,1,1s-0.448,1-1,1
		S5,2.502,5,1.95z" stroke="white" fill="white"/>
</g>
<g>
</g>
<g>
</g>
<g>
</g>
<g>
</g>
<g>
</g>
<g>
</g>
<g>
</g>
<g>
</g>
<g>
</g>
<g>
</g>
<g>
</g>
<g>
</g>
<g>
</g>
<g>
</g>
<g>
</g>
</svg>
